<svg xmlns="http://www.w3.org/2000/svg" viewBox="0 0 400 300" width="400" height="300">
<defs>
<linearGradient id="bg" x1="0" y1="0" x2="1" y2="1"><stop offset="0" stop-color="#f5e9db"/><stop offset="1" stop-color="#e9d6bd"/></linearGradient>
<radialGradient id="gl" cx="50%" cy="40%" r="58%"><stop offset="0" stop-color="#fff" stop-opacity=".6"/><stop offset="1" stop-color="#fff" stop-opacity="0"/></radialGradient>
</defs>
<rect width="400" height="300" fill="url(#bg)"/>
<rect width="400" height="300" fill="url(#gl)"/>
<ellipse cx="200" cy="250" rx="108" ry="15" fill="#2a1a32" opacity=".1"/>

<path d="M152 126h96c7 0 12 5 12 12v90c0 14-11 25-25 25h-70c-14 0-25-11-25-25v-90c0-7 5-12 12-12Z" fill="#c3a074"/>
<path d="M152 126h28v127h-13c-14 0-25-11-25-25v-90c0-7 5-12 12-12Z" fill="#d6b68c"/>
<path d="M244 126h4v102c0 14-11 25-25 25h-8c14 0 25-11 25-25Z" fill="#a8845c"/>
<rect x="142" y="112" width="116" height="18" rx="8" fill="#8f7a5e"/>
<rect x="158" y="86" width="84" height="28" rx="9" fill="#b9b2a6"/>
<rect x="158" y="86" width="84" height="11" rx="5" fill="#cfc9bf"/>
<rect x="194" y="46" width="12" height="44" rx="6" fill="#7d7468"/>
<path d="M200 50h46c7 0 11 5 11 11s-4 11-11 11" fill="none" stroke="#7d7468" stroke-width="9" stroke-linecap="round"/>
<circle cx="256" cy="72" r="11" fill="#5a4a3c"/>
<circle cx="177" cy="196" r="9" fill="#6f5334"/><circle cx="200" cy="212" r="9" fill="#6f5334"/><circle cx="223" cy="196" r="9" fill="#6f5334"/>

</svg>