<svg xmlns="http://www.w3.org/2000/svg" viewBox="0 0 400 300" width="400" height="300">
<defs>
<linearGradient id="bg" x1="0" y1="0" x2="1" y2="1"><stop offset="0" stop-color="#eae5f0"/><stop offset="1" stop-color="#d7cfe3"/></linearGradient>
<radialGradient id="gl" cx="50%" cy="40%" r="58%"><stop offset="0" stop-color="#fff" stop-opacity=".6"/><stop offset="1" stop-color="#fff" stop-opacity="0"/></radialGradient>
</defs>
<rect width="400" height="300" fill="url(#bg)"/>
<rect width="400" height="300" fill="url(#gl)"/>
<ellipse cx="200" cy="250" rx="108" ry="15" fill="#2a1a32" opacity=".1"/>

<rect x="84" y="86" width="232" height="132" rx="10" fill="#33283f"/>
<rect x="92" y="94" width="216" height="112" rx="5" fill="#4b3d5c"/>
<rect x="92" y="94" width="216" height="112" rx="5" fill="url(#gl)" opacity=".25"/>
<rect x="178" y="218" width="44" height="22" fill="#2a2034"/>
<rect x="146" y="238" width="108" height="12" rx="6" fill="#241b2e"/>
<rect x="126" y="62" width="148" height="20" rx="9" fill="#2a2034"/>
<rect x="134" y="80" width="132" height="7" rx="3.5" fill="#ffd9a3"/>
<path d="M134 87h132l46 76H88Z" fill="#ffd9a3" opacity=".22"/>
<rect x="186" y="52" width="28" height="12" rx="5" fill="#3a2f45"/>

</svg>