<svg xmlns="http://www.w3.org/2000/svg" viewBox="0 0 400 300" width="400" height="300">
<defs>
<linearGradient id="bg" x1="0" y1="0" x2="1" y2="1"><stop offset="0" stop-color="#f9e8de"/><stop offset="1" stop-color="#f0d2c4"/></linearGradient>
<radialGradient id="gl" cx="50%" cy="40%" r="58%"><stop offset="0" stop-color="#fff" stop-opacity=".6"/><stop offset="1" stop-color="#fff" stop-opacity="0"/></radialGradient>
</defs>
<rect width="400" height="300" fill="url(#bg)"/>
<rect width="400" height="300" fill="url(#gl)"/>
<ellipse cx="200" cy="250" rx="108" ry="15" fill="#2a1a32" opacity=".1"/>

<g transform="rotate(-6 158 180)">
<path d="M84 120h150c10 0 16 6 16 16v88c0 10-6 16-16 16H84c-10 0-16-6-16-16v-88c0-10 6-16 16-16Z" fill="#dfc3d0"/>
<path d="M84 120h50v120H84c-10 0-16-6-16-16v-88c0-10 6-16 16-16Z" fill="#ecd6de"/>
<path d="M100 146c26 20 90 20 116 0M100 214c26-20 90-20 116 0" fill="none" stroke="#cba9ba" stroke-width="4"/>
<path d="M120 172c24 12 56 12 80 0" fill="none" stroke="#f3e2e9" stroke-width="5" opacity=".9"/>
</g>
<g transform="rotate(8 274 192)">
<path d="M204 136h140c10 0 16 6 16 16v84c0 10-6 16-16 16H204c-10 0-16-6-16-16v-84c0-10 6-16 16-16Z" fill="#cbb2d3"/>
<path d="M204 136h46v116h-46c-10 0-16-6-16-16v-84c0-10 6-16 16-16Z" fill="#dcc6e2"/>
<path d="M218 160c24 18 84 18 108 0M218 226c24-18 84-18 108 0" fill="none" stroke="#b79ac2" stroke-width="4"/>
<path d="M236 192c22 10 52 10 74 0" fill="none" stroke="#eadff0" stroke-width="5" opacity=".9"/>
</g>

</svg>