<svg xmlns="http://www.w3.org/2000/svg" viewBox="0 0 400 300" width="400" height="300">
<defs>
<linearGradient id="bg" x1="0" y1="0" x2="1" y2="1"><stop offset="0" stop-color="#f9e8de"/><stop offset="1" stop-color="#f0d2c4"/></linearGradient>
<radialGradient id="gl" cx="50%" cy="40%" r="58%"><stop offset="0" stop-color="#fff" stop-opacity=".6"/><stop offset="1" stop-color="#fff" stop-opacity="0"/></radialGradient>
</defs>
<rect width="400" height="300" fill="url(#bg)"/>
<rect width="400" height="300" fill="url(#gl)"/>
<ellipse cx="200" cy="250" rx="108" ry="15" fill="#2a1a32" opacity=".1"/>

<ellipse cx="200" cy="244" rx="62" ry="12" fill="#c8a394"/>
<rect x="176" y="196" width="48" height="46" rx="8" fill="#d9b3a2"/>
<rect x="140" y="232" width="120" height="16" rx="8" fill="#c39383"/>
<circle cx="200" cy="130" r="82" fill="#e7cfc2"/>
<circle cx="200" cy="130" r="70" fill="#fdf6f1"/>
<circle cx="200" cy="130" r="70" fill="url(#gl)" opacity=".6"/>
<circle cx="200" cy="130" r="58" fill="#f6e8e0" opacity=".85"/>
<g fill="#fff8ea" stroke="#e3c8a8" stroke-width="1.5">
<circle cx="200" cy="54" r="8"/><circle cx="254" cy="76" r="8"/><circle cx="276" cy="130" r="8"/>
<circle cx="254" cy="184" r="8"/><circle cx="200" cy="206" r="8"/><circle cx="146" cy="184" r="8"/>
<circle cx="124" cy="130" r="8"/><circle cx="146" cy="76" r="8"/>
</g>
<path d="M168 106c14-12 50-12 64 0" fill="none" stroke="#fff" stroke-width="6" stroke-linecap="round" opacity=".75"/>

</svg>